<?xml version="1.0" standalone="no"?>
<!DOCTYPE svg PUBLIC "-//W3C//DTD SVG 1.1//EN" "http://www.w3.org/Graphics/SVG/1.1/DTD/svg11.dtd">
<svg xmlns="http://www.w3.org/2000/svg">
<metadata>Generated by Fontastic.me</metadata>
<defs>
<font id="general-font" horiz-adv-x="512">
<font-face font-family="general-font" units-per-em="512" ascent="480" descent="-32"/>
<missing-glyph horiz-adv-x="512" />

<glyph glyph-name="arrow-down" unicode="&#97;" d="M256 94l-241 244c-19 19-19 50 0 69 19 19 50 19 69 0l176-176 176 176c19 19 49 19 68 0 19-19 19-50 0-69z"/>
<glyph glyph-name="arrow-down-with-tail" unicode="&#98;" d="M459 232c-12 12-28 12-40 0l-133-134 0 386c0 16-12 28-28 28-16 0-32-12-32-28l0-386-133 134c-12 12-28 12-40 0-12-11-12-27 0-39l181-181c8-8 16-12 24-12 8 0 16 4 20 8l181 181c12 12 12 32 0 43z"/>
<glyph glyph-name="arrow-up" unicode="&#99;" d="M256 418l241-240c19-19 19-50 0-69-19-19-50-19-69 0l-172 176-176-176c-19-19-49-19-69 0-19 19-19 50 0 69z"/>
<glyph glyph-name="arrow-up-with-tail" unicode="&#100;" d="M51 280c12-12 28-12 40 0l133 134 0-386c0-16 12-28 28-28 16 0 32 12 32 28l0 386 133-134c12-12 28-12 40 0 12 11 12 27 0 39l-181 181c-8 8-16 12-24 12-8 0-16-4-20-8l-181-181c-12-12-12-32 0-43z"/>
<glyph glyph-name="booking" unicode="&#101;" d="M430 454l-17 0 0-81-117 0 0 81-83 0 0-81-117 0 0 81-14 0c-42 0-75-34-75-76l0-303c0-42 33-75 75-75l348 0c42 0 75 33 75 75l0 303c0 42-33 76-75 76z m11-393l-370 0 0 226 370 0z m-314 451l50 0 0-111-50 0z m200 0l50 0 0-111-50 0z"/>
<glyph glyph-name="bus" unicode="&#102;" d="M480 368c0-32 0-64 0-94 6 0 13 0 19 0 3 0 7 3 10 4 1 2 3 4 5 7 0 24 0 48 0 72-8 13-15 13-34 11z m-480-11c0-24 0-48 0-72 0-2 2-2 2-3 3-5 6-8 11-8 6 0 13 0 19 0 0 32 0 64 0 96-13-2-26 1-32-13z m426 105c-21 23-45 34-76 34-62 0-126 0-188 0-10 0-20-2-28-3-19-5-35-16-48-32-16-19-22-42-22-67 0-53 0-106 0-159 0-40 0-80 0-121 0-12 3-21 13-28 5-3 11-6 19-6 0-2 0-3 0-5 0-9 0-19 0-29 0-16 13-28 30-28 12 0 24 0 36 0 14 0 24 9 28 22 2 3 2 8 2 13 0 9 0 19 0 29 43 0 85 0 128 0 0-2 0-4 0-5 0-10 0-21 0-31 2-14 13-25 27-27 13 0 27 0 40 0 11 0 23 10 26 21 1 5 1 8 1 13 0 9 0 19 0 29 2 0 2 0 2 0 18 1 30 14 30 33 0 96 0 191 0 287 2 22-6 43-20 60z m-234 2c43 0 85 0 128 0 0-11 0-21 0-32-43 0-85 0-128 0 0 11 0 21 0 32z m-64-352c-18 0-32 14-32 32 0 18 14 32 32 32 18 0 32-14 32-32 0-18-14-32-32-32z m256 0c-18 0-32 14-32 32 0 18 14 32 32 32 18 0 32-14 32-32 0-18-14-32-32-32z m32 96c-107 0-213 0-320 0 0 64 0 128 0 192 107 0 213 0 320 0 0-64 0-128 0-192z"/>
<glyph glyph-name="clock-icon" unicode="&#103;" d="M259 512c-143 0-259-113-259-256 0-140 116-256 256-256 140 0 256 116 256 256-3 140-116 256-253 256z m-3-454c-109 0-198 89-198 198 0 109 89 198 198 198 109 0 198-89 198-198 0-109-89-198-198-198z m92 249c-13-7-24-13-37-20-7-7-14-11-24-14 0 3 0 3 0 7 0 44 0 92 0 136 0 17-11 28-28 28-17 0-27-11-27-28 0-64 0-129 0-194 0-24 24-38 44-24 35 20 69 41 103 61 14 11 17 24 10 41-10 14-27 17-41 7z"/>
<glyph glyph-name="coin" unicode="&#104;" d="M281 481c-121 2-225-97-225-221 0-122 98-223 219-223 128 0 224 103 224 221 2 122-96 221-218 223z m-4-414c-105 0-190 88-190 193 0 106 87 191 192 191 106 0 191-87 189-193 2-106-85-191-191-191z m88 167c-4 4-7 6-11 0-6-10-16-15-28-15-10 0-22 0-32-4-5-2-5 0-5 4 0 5 3 9 3 15 0 6-3 12 0 16 4 4 10 4 16 6 2 0 4 2 4 2 10 4 10 4 6 14 0 2 0 2-2 4-4 12-4 12-20 6-4-2-9-4-13-4-16-6-18-6-28 8-2 5-4 7-6 11-4 12-2 22 8 30 10 8 24 8 37 0 6-4 8-4 12 2 8 8 14 18 22 26 4 2 4 7-2 11-8 4-16 10-26 12-37 4-69-6-96-35-28-30-22-69 0-89 6-4 2-6-2-8-2-2-6-4-6-6 2-8 6-16 10-25 6 2 10 2 17 4 2 0 4 0 4 2 12 5 16 3 20-10 2-6 2-12 0-18-2-8-6-14-12-20-4-4-4-8 0-10 6-6 12-13 18-19 4-6 8-4 12 0 14 17 31 25 45 21 26-2 42 2 59 12 8 4 12 10 18 16 4 4 4 8 0 12-8 12-14 21-22 29z m-331 28c0 43 10 81 30 118-53-63-73-144-44-217 28-73 97-120 178-130-95 32-164 122-164 229z"/>
<glyph glyph-name="cross" unicode="&#105;" d="M328 254l168 168c20 20 20 53 0 74-21 20-54 20-74 0l-164-168-172 168c-20 20-53 20-74 0-20-21-20-54 0-74l168-168-168-168c-20-20-20-53 0-74 8-8 25-16 37-16 12 0 25 4 37 16l172 172 168-168c8-8 25-16 37-16 12 0 24 4 37 16 20 21 20 54 0 74z"/>
<glyph glyph-name="cross-1" unicode="&#106;" d="M512 435l-77 77-178-178-180 178-77-77 178-180-178-178 77-77 180 178 178-178 77 77-178 178z"/>
<glyph glyph-name="download-book" unicode="&#107;" d="M440 243c4 5 5 10 3 16-26 81-53 164-79 246-1 3-2 4-4 7-4-7-8-13-12-19-27-37-62-64-102-85-41-21-85-35-131-48-5-1-7-3-8-8-17-88-34-176-51-264-5-26-10-53-16-82 28 10 54 18 81 29 93 36 180 81 256 144 23 20 46 40 63 64z m-261-226c3 0 5 0 7 0 39 6 79 10 118 16 46 7 93 15 138 29 9 2 19 7 30 10-7 19-14 36-21 54-84-54-177-81-272-109z m15 25c1-1 1-1 1-1 65 20 128 43 188 72 23 12 45 27 68 41 3 2 6 4 4 10-6 13-11 26-17 41-70-72-155-121-244-163z m264 1c-97-27-197-34-297-43 102 3 206 4 310 7-3 7-5 14-7 20-1 5-4 10-6 16z"/>
<glyph glyph-name="downtime" unicode="&#108;" d="M317 297c-34 34-68 68-100 101-7 6-17 11-26 11-11 0-19-5-26-11-17-17-33-33-49-49-15-15-15-37 0-54 60-59 121-121 181-181 15-15 37-15 53 0 16 17 33 33 49 49 15 15 15 37 0 54-29 25-56 53-82 80z m-45-11c9 0 15-7 14-15 0-8-7-14-15-14-8 0-15 7-14 15 0 7 7 14 15 14z m-31 30c8 0 15-7 14-15 0-8-7-15-15-14-9 0-15 7-14 15 1 8 7 15 15 14z m-31-59c-8 0-15 7-15 15 0 9 7 14 13 15 9 0 15-6 15-15 2-9-5-15-13-15z m31-31c-8 0-15 7-15 15 0 8 7 15 15 15 8 0 14-7 15-14 0-9-7-16-15-16z m30-30c-8 0-15 7-15 15 0 8 7 15 15 15 8 0 15-7 15-15 0-9-7-15-15-15z m31 30c-8 0-13 7-15 14 0 8 7 15 14 15 8 0 15-7 15-15 0-7-6-14-14-14z m-185-18c-9-11-9-27 0-38 3-3 6-5 8-8 15-15 29-29 44-44 11-10 28-12 39-1 11 11 22 22 32 31-30 30-62 62-92 92-9-10-20-21-31-32z m247 63c10 11 20 20 31 31 11 11 11 29-1 40-17 16-35 34-51 50-12 12-30 12-42 0-8-8-15-15-23-23-3-3-6-5-7-7 31-30 61-60 93-91-2 0 0 0 0 0z m-107 241c0 0-1 0-1 0-68 0-132-26-180-74-49-49-76-113-76-182 0-142 114-256 256-256 140 0 255 114 256 256 1 140-113 255-255 256z m-1-497c-133 0-241 109-241 241 0 65 26 125 72 172 45 45 105 69 169 69 0 0 1 0 1 0 134-1 241-109 240-241 0-133-109-241-241-241z"/>
<glyph glyph-name="duration" unicode="&#109;" d="M349 135c-2 0-3 0-3 3-8 32-25 59-48 84-5 5-11 11-15 18-5 6-5 13-1 20 1 1 1 3 3 3 6 7 12 15 19 22 19 21 35 46 43 76 0 1 2 3 3 3 3 0 5 0 9 0 0 6 0 13 0 20-68 0-134 0-201 0 0-7 0-14 0-20 4 0 7 0 9 0 2 0 3 0 5-3 9-31 25-59 46-83 5-7 11-12 15-19 4-6 4-13 0-18-4-5-8-11-12-15-25-26-43-54-51-88 0-2-1-3-3-2-4 0-6 0-10 0 0-7 0-13 0-20 68 0 136 0 202 0 0 7 0 13 0 20-1 0-2 0-5 0-3-1-4-1-5-1z m-126 166c-1 1-2 3-4 5 26 0 51 0 76 0-4-4-6-8-10-12-9-8-17-16-26-22-2-1-3-1-4 0-14 7-24 18-32 29z m-31-163c4 5 8 10 12 15 14 17 30 34 49 46 2 1 3 1 6 0 23-14 42-33 57-55 1-2 4-5 5-6 0 0 0 0 0-2-43 2-85 2-129 2z m65 374c-69 0-133-26-181-74-49-49-76-113-76-182 0-142 114-256 256-256 140 0 255 114 256 256 1 140-113 255-255 256z m-1-497c-133 0-241 109-241 241 0 65 26 125 72 172 45 45 105 69 169 69 0 0 1 0 1 0 134-1 241-109 240-241 0-133-109-241-241-241z"/>
<glyph glyph-name="envelope" unicode="&#110;" d="M501 312c-57-31-112-60-170-91-19-9-36-19-55-28-12-5-24-5-36 0-4 2-14 4-19 7-71 38-148 76-220 115 0-75 0-149 0-223 24-21 24-16 48-16 141 0 285 0 426 0 21 0 28 4 28 26 0 69 0 138 0 210 0-2 0 0-2 0 2 0 2 0 0 0z m-411 31c55-28 110-57 165-88 2 0 5 0 7 0 81 43 163 86 244 129 2 0 2 2 2 5 0 7 0 14 0 21 0 7-2 12-7 19-5 7-14 10-26 10-144 0-287 0-431 0 0 0-2 0-2 0-9 0-24-5-29-12-2-5-12-10-12-14 0-10 0-20 0-32 0 0 8 0 10-2 24-9 55-24 79-36z"/>
<glyph glyph-name="facebook" unicode="&#111;" d="M257 512c-143 0-257-114-257-257 0-142 114-257 257-257 141 0 257 115 257 257 0 143-116 257-257 257z m58-257c-12 0-25 0-37 0 0-2 0-2 0-3 0-44 0-87 0-131 0 0 0-1 0-1-18 0-33 0-51 0 0 3 0 8 0 12 0 40 0 79 0 120 0 1 0 1 0 3-11 0-23 0-33 0 0 2 0 2 0 2 0 14 0 28 0 42 0 2 0 2 1 2 9 0 20 0 28 0 2 0 2 0 2 2 0 12 0 24 0 37 0 8 2 17 7 26 6 9 13 16 21 18 7 5 13 5 18 7 0 0 2 0 2 0 16 0 30 0 45 0 0 0 0-2 0-2 0-14 0-28 0-42 0-2 0-2-1-2-7 0-16 0-23 0-2 0-5 0-7-2-5-2-9-5-9-10 0-11 0-20 0-30 0-2 2-2 2-2 12 0 24 0 37 0 0 0 1 0 3 0-2-14-3-30-5-46z"/>
<glyph glyph-name="finance" unicode="&#112;" d="M257 512c0 0-2 0-2 0-68 0-131-27-179-74-49-49-76-113-76-181 0-141 115-256 255-257 141 0 256 115 256 255 1 141-113 256-254 257z m0-497c-2 0-2 0 0 0-134 0-241 108-241 240 0 64 25 126 71 171 45 46 104 71 168 71 0 0 2 0 2 0 132-1 240-109 240-242-1-132-108-240-240-240z m96 405c-64 0-128 0-193 0-21 0-32-11-32-32 0-44 0-87 0-131 0-44 0-89 0-131 0-22 11-34 34-34 64 0 128 0 192 0 20 0 32 12 32 32 0 89 0 175 0 264-1 21-12 32-33 32z m-151-293c-20 0-36 15-36 35 0 18 14 35 32 35 24 0 36-17 37-35 2-19-14-35-33-35z m-1 84c-19 0-35 16-35 35 0 19 14 35 35 35 20 0 36-15 36-35-2-19-18-33-36-35z m112-84c-19 0-35 16-35 35 0 21 16 35 33 35 22 1 38-15 38-35-1-19-17-35-36-35z m-36 120c0 19 14 35 34 35 21 0 35-16 37-35-2-20-14-34-38-34-16-2-33 16-33 34z m52 60c-15 0-30 0-44 0-31 0-62 0-94 0-27 0-37 11-37 38 0 7 0 12 0 19 0 17 12 30 30 30 25 0 49 0 74 0 23 0 47 0 70 0 21 0 33-12 33-33 0-7 0-13 0-21-1-19-13-31-32-33z m-36-65l13 0 0-13c0-3 3-6 5-6 3 0 6 3 6 6l0 13 13 0c3 0 6 3 6 5 0 3-3 6-6 6l-13 0 0 13c0 3-3 5-6 5-2 0-5-2-5-5l0-13-13 0c-3 0-6-3-6-6 0-2 3-5 6-5z m-75 23c-3 2-5 2-8 0l-9-10-10 10c-3 2-5 2-8 0-3-3-3-6 0-8l10-10-10-9c-3-3-3-5 0-8 1-1 3-1 4-1 1 0 3 0 4 1l10 9 9-9c1-1 3-1 4-1 1 0 3 0 4 1 3 3 3 5 0 8l-9 9 9 10c1 2 1 5 0 8z m1-97l-37 0c-3 0-6-2-6-5 0-3 3-5 6-5l37 0c3 0 6 2 6 5 0 3-3 5-6 5z m113 7l-38 0c-3 0-5-3-5-5 0-3 2-6 5-6l38 0c2 0 5 3 5 6 0 2-3 5-5 5z m0-17l-38 0c-3 0-5-3-5-6 0-2 2-5 5-5l38 0c2 0 5 3 5 5 0 3-3 6-5 6z"/>
<glyph glyph-name="google-plus" unicode="&#113;" d="M257 512c-143 0-257-114-257-257 0-142 114-257 257-257 141 0 257 115 257 257 0 143-116 257-257 257z m47-326c-22-43-68-61-112-56-62 5-104 53-109 104 0 2 0 2-2 4 0 7 0 14 0 21 2 5 2 8 3 14 18 86 127 125 194 67 2-2 4-4 5-6-10-10-21-21-31-30-37 23-71 23-97 0-25-22-34-58-18-88 16-31 48-47 83-40 26 5 49 26 51 49-23 0-44 0-67 0 0 14 0 27 0 41 2 0 4 0 7 0 34 0 67 0 100 0 6 0 7-2 9-7-2-27-5-50-16-73z m122 44c0-12 0-22 0-33-13 0-23 0-35 0 0 11 0 21 0 33-13 0-23 0-34 0 0 11 0 23 0 34 11 0 21 0 34 0 0 12 0 21 0 33 12 0 22 0 35 0 0-10 0-21 0-33 12 0 23 0 33 0 0-12 0-23 0-34-10 0-21 0-33 0z"/>
<glyph glyph-name="home" unicode="&#114;" d="M256 512c-141 0-256-115-256-256 0-141 115-256 256-256 141 0 256 115 256 256 0 141-115 256-256 256z m0-493c-132 0-237 107-237 237 0 130 105 237 237 237 132 0 237-105 237-237 0-132-107-237-237-237z m8 378c-4 4-14 4-17 0l-47-47 0 28c0 8-6 12-12 12l-22 0c-8 0-12-6-12-12l0-73-35-36c-4-4-4-9 3-9l32 0 0-106c0-7 6-11 12-11l62 0 0 70 52 0 0-70 63 0c7 0 11 6 11 11l0 108 32 0c7 0 7 3 4 9z"/>
<glyph glyph-name="minus-square" unicode="&#115;" d="M0 512l0-512 512 0 0 512z m365-278l-218 0c-13 0-22 8-22 21 0 13 9 21 22 21l218 0c13 0 22-8 22-21 0-13-9-21-22-21z"/>
<glyph glyph-name="linkedin" unicode="&#116;" d="M257 512c-143 0-257-114-257-257 0-142 114-257 257-257 141 0 257 115 257 257 0 143-116 257-257 257z m-65-377c-18 0-35 0-53 0-4 0-4 2-4 4 0 56 0 113 0 169 0 2 0 2 0 3 20 0 39 0 60 0 0-1 0-1 0-3 0-56 0-113 0-169 0-2 0-4-3-4z m-5 208c-13-9-27-9-41-2-9 6-14 16-14 27 0 16 11 28 26 30 11 1 20 0 29-7 15-11 15-36 0-48z m218-208c-18 0-36 0-53 0-4 0-4 2-4 4 0 30 0 60 0 90 0 7 0 16-3 23-5 12-14 19-28 19-18 0-32-14-32-32 0-26 0-51 0-77 0-9 0-16 0-25 0-2 0-3-2-3-17 0-37 0-54 0 0 0 0 0-2 0 0 58 0 118 0 176 2 0 2 0 3 0 18 0 36 0 53 0 4 0 4 0 4-4 0-7 0-14 0-21 2 2 2 2 2 2 14 21 33 28 58 26 10 0 19-3 28-9 14-8 21-19 26-35 4-12 5-24 5-37 0-31 0-65 0-97 2 2 2 0-1 0z"/>
<glyph glyph-name="menu" unicode="&#117;" d="M0 512l512 0 0-114-512 0z m0-199l512 0 0-114-512 0z m0-199l512 0 0-114-512 0z"/>
<glyph glyph-name="minus" unicode="&#118;" d="M470 214l-428 0c-25 0-42 17-42 42 0 25 17 42 42 42l428 0c25 0 42-17 42-42 0-25-17-42-42-42z"/>
<glyph glyph-name="premier" unicode="&#119;" d="M144 70c0 43 0 176 0 176 0 0-108 4-120 112 0-1-71-187 120-288z m-1 191c0 0 0 37-3 94-3 59 55 88 55 88 0 0 37 23 14-10-22-32-18-72-18-72 0 0 0-228 0-307 152-36 233 80 233 80 0 0 100 121 20 260-72 125-209 113-209 113 0 0 164-2 157-152-7-149-153-144-164-145-9 0-31 12-1 13 80 8 101 72 101 72 0 0 43 84-20 146-65 65-165 33-165 33 0 0-96-25-96-120 0-89 96-93 96-93z m206 233c86-41 148-123 148-221 0-134-110-243-248-243-137 0-248 108-249 241 0-4 0-9 0-13 0-140 115-253 256-253 141 0 256 113 256 253 0 108-68 199-163 236z"/>
<glyph glyph-name="parking" unicode="&#120;" d="M510 472c-2 21-15 34-34 38-6 2-11 2-19 2-66 0-133 0-201 0-68 0-133 0-199 0-8 0-13 0-19-2-19-2-32-13-36-32-2-6-2-12-2-17 0-139 0-275 0-414 0-3 0-7 0-11 4-19 11-30 28-34 8-2 14-2 21-2 53 0 108 0 161 0l251 0c4 0 7 0 11 0 21 2 34 13 38 30 2 6 2 14 2 19 0 137 0 271 0 408 0 6 0 9-2 15z m-112-210c-19-36-53-63-93-69-5 0-9-1-17-1-19 0-38 0-55 0l-19 0 0-118-81 0 0 370 53 0c32 0 66 0 98 0 50 0 86-23 110-69 21-36 21-77 4-113z m-114 104c-17 0-32 0-49 0-7 0-15 0-21 0l0-99c25 0 50 0 74 0 2 0 6 0 8 0 24 6 38 25 38 50-4 28-25 49-50 49z"/>
<glyph glyph-name="phone" unicode="&#121;" d="M125 512c9-3 14-11 17-19 14-25 27-47 38-72 6-5 9-11 14-16 8-14 6-20-3-28-11-11-35-30-46-41-9-6-14-14-23-19-5-6-5-11 0-20 6-11 12-22 17-33 11-19 25-36 39-52 13-14 27-28 41-41 14-11 25-20 38-28 14-8 28-16 39-22 8-5 16-3 22 6 11 11 30 33 41 44 6 5 11 11 19 16 9 6 14 6 23 0 11-5 19-14 30-19 19-11 38-22 60-33 6-3 11-8 17-11 3 0 3-3 3-6 0-2 0-8 0-11 0 0 0 0 0-2-3-11-3-20-6-31-3-11-16-27-25-33-8-5-16-13-24-19-14-11-31-16-47-19-6 0-11-3-19-3-9 0-14 0-23 0-8 3-16 3-22 6-22 8-46 16-68 24-20 6-36 17-53 25-16 11-35 22-49 39-14 13-28 24-41 38-23 22-42 44-58 66-14 17-25 36-33 55-11 17-17 33-22 53-6 11-11 27-14 41-3 5-3 14-6 22 0 5 0 14 0 22 0 0 0 3 0 3 3 8 3 16 6 22 5 16 14 30 22 44 11 16 38 41 58 46 8 3 19 3 27 6 3 0 8 0 11 0z"/>
<glyph glyph-name="plus" unicode="&#122;" d="M470 296l-170 0 0 174c0 25-17 42-42 42-25 0-42-17-42-42l0-174-174 0c-25 0-42-17-42-42 0-25 17-42 42-42l174 0 0-175c0-25 17-41 42-41 25 0 42 16 42 41l0 175 175 0c25 0 41 17 41 42 0 25-21 42-46 42z"/>
<glyph glyph-name="plus-1" unicode="&#65;" d="M0 512l0-512 512 0 0 512z m365-278l-89 0 0-90c0-12-8-21-21-21-13 0-21 9-21 21l0 90-87 0c-13 0-22 8-22 21 0 13 9 21 22 21l89 0 0 89c0 13 8 22 21 22 13 0 21-9 21-22l0-89 90 0c12 0 21-8 21-21 0-13-11-21-24-21z"/>
<glyph glyph-name="premier-circle" unicode="&#66;" d="M474 277c0-128-103-231-231-231-127 0-230 103-230 231 0 127 103 230 230 230 128 0 231-103 231-230z m-125 216c84-41 146-122 146-220 0-133-110-242-247-242-136 0-246 108-247 241 0-4 0-9 0-13 0-140 114-253 255-253 141 0 255 113 255 253 0 105-67 197-162 234z"/>
<glyph glyph-name="search" unicode="&#67;" d="M476 87c-17 22-34 43-51 68-5 4-41 50-46 60 19 29 32 63 34 99 2 106-80 196-184 198-113 2-200-80-202-188-3-102 82-191 183-194 27 0 53 5 77 15 27-31 83-104 104-133 5-5 12-7 20-10 24-7 53 8 65 32 12 19 12 36 0 53z m-404 234c0 80 66 148 148 145 79 0 145-65 145-145 0-79-66-145-145-145-82-2-148 63-148 145z"/>
<glyph glyph-name="telephone-icon" unicode="&#68;" d="M168 509c7-4 11-14 14-21 10-23 17-47 27-70 0-7 3-14 3-17 7-14 0-20-7-27-10-7-23-14-33-20-7-7-14-10-24-17-3-4-7-10-3-17 3-10 7-24 13-34 7-20 17-37 27-54 10-16 20-30 34-43 10-10 20-24 34-34 10-10 23-20 33-27 7-7 17-7 24 0 10 10 23 20 34 27 6 3 13 10 20 13 7 4 13 4 20-3 10-7 17-13 24-24 16-13 33-26 50-40 3-3 10-7 14-13 0 0 3-4 3-7 0-4 0-7-3-10-4-10-7-17-11-27-3-10-10-17-16-24-7-3-17-10-27-13-14-7-31-10-47-10-7 0-11 0-17 0-7 0-14 3-21 3-13 3-20 7-26 10-21 10-41 24-61 34-17 10-30 20-44 33-13 14-30 27-40 44-10 14-24 27-34 41-17 23-30 47-44 70-10 21-17 37-23 58-4 17-7 37-10 54-4 13-4 27-7 40 0 7 0 13 0 20 0 7 3 14 3 20 0 0 0 4 0 4 4 7 7 13 10 20 7 13 17 27 27 37 14 17 27 27 47 27 10 0 17 0 27 0 4 0 7 0 10-3z"/>
<glyph glyph-name="time" unicode="&#69;" d="M257 512c-68 0-132-26-181-74-49-49-76-113-76-182 0-142 114-256 256-256 140 0 255 114 256 256 1 140-113 255-255 256z m-1-497c-133 0-241 109-241 241 0 65 26 125 72 172 45 45 105 69 169 69 0 0 1 0 1 0 134-1 241-109 240-241 0-133-109-241-241-241z m3 422c-100 0-181-82-181-181 0-99 81-181 181-181 99 0 181 80 181 181 0 99-82 181-181 181z m109-271c-25-30-58-46-97-52 0 3 0 6-1 9-2 6-6 10-13 10-6 0-11-4-12-10 0-3 0-6-1-9-62 3-123 58-128 128 5 0 12 0 16 4 1 3 3 6 3 9 0 5-2 9-7 11-4 1-8 1-12 2 4 64 60 123 128 128 0-2 0-5 0-8 1-7 5-11 11-11 6 0 11 4 12 10 0 2 0 7 1 9 30-2 56-13 78-32 30-25 46-58 50-96-2 0-5 0-9-1-7-1-11-6-11-11 0-7 4-11 9-12 3 0 7 0 10-2 1-28-8-54-27-76z m-81 87c-1 2-1 3-2 4 0 9-4 15-13 21-1 1-1 3-1 4 0 7 0 12-1 19-2 18-2 34-3 52 0 4-1 8-7 9-7 3-14-1-14-9-1-23-2-47-4-68 0-3-1-6-2-7-10-7-13-18-9-30 3-10 14-17 25-18 1 0 4-1 5-3 20-16 37-32 56-49 3-1 6-2 7-4 8 0 12 4 14 8 2 6 1 10-3 14-15 19-31 38-48 57z"/>
<glyph glyph-name="tube" unicode="&#70;" d="M508 303l-56 0c-22 89-102 155-197 155-95 0-173-66-195-155l-56 0 0-94 56 0c20-89 100-155 195-155 95 0 175 66 197 155l56 0z m-253 90c60 0 111-38 129-90l-258 0c20 52 71 90 129 90z m0-274c-60 0-110 38-129 90l258 0c-18-52-69-90-129-90z"/>
<glyph glyph-name="twitter" unicode="&#71;" d="M257 512c-143 0-257-114-257-257 0-142 114-257 257-257 141 0 257 115 257 257 0 143-116 257-257 257z m128-183c-5-5-10-11-16-14-1-2-1-2-1-4 0-15-2-33-6-49-7-24-19-47-36-67-11-10-22-21-34-28-16-10-33-17-53-21-21-3-44-5-65 0-17 4-33 9-49 18-4 1-5 3-7 5 32-2 58 5 84 25-26 1-44 15-54 40 9-2 17-2 24 2-12 3-24 10-31 21-9 10-13 23-13 37 6-9 15-11 23-11-26 21-31 48-17 78 31-37 70-58 119-60 0 3 0 7-1 10 0 18 5 34 19 46 14 14 32 18 51 14 11-2 21-7 28-16 2-3 2-3 4-3 10 2 21 7 31 12 0 0 2 0 4 2-5-14-12-23-25-32 5 2 11 2 16 4 5 2 11 3 16 5-4-5-5-9-11-14z"/>
<glyph glyph-name="youtube" unicode="&#72;" d="M257 512c-143 0-257-114-257-257 0-142 114-257 257-257 141 0 257 115 257 257 0 143-116 257-257 257z m156-274c0 0-1 0 0 0 0-2 0-6-1-8 0-3 0-7 0-10 0-5 0-9-2-14 0-9-2-16-5-25-6-16-18-26-36-28-10-2-21-2-31-2-18 0-35-1-51-1-5 0-13 0-18 0 0 0-2 0-2 0-5 0-12 0-17 0 0 0 0 0-2 0-3 0-5 0-9 0-10 0-19 0-30 0-17 0-33 1-51 1-7 0-15 2-23 4-12 5-21 12-26 28-2 7-3 16-5 23 0 10-2 23-2 33 0 21 0 43 0 62 0 7 2 14 2 21 2 7 3 14 7 21 5 12 14 18 24 21 6 2 11 4 16 4 6 0 9 0 14 1 6 0 9 0 14 0 15 0 27 0 41 2 3 0 7 0 10 0 0 0 0 0 2 0 18 0 35 0 53 0 0 0 0 0 2 0 7 0 14 0 21 0 5 0 10 0 16 0 2 0 2 0 3 0 4 0 9 0 13 0 3 0 7 0 10 0 4 0 9 0 12-2 4 0 7 0 13-1 3 0 7-2 10-4 7-2 11-7 16-12 5-5 7-11 9-18 2-7 3-14 3-21 0-3 0-9 2-12 0-5 0-9 0-14 0 0 0 0 0-2-2-16-2-32-2-47z m-202-32c37 19 74 39 113 58-37 19-76 39-113 58 0-39 0-77 0-116z"/>
<glyph glyph-name="star-empty" unicode="&#73;" d="M256 427c28-86 36-110 39-119 2-11 12-19 23-19l125 0c-38-28-84-61-100-72l-2 0c-8-7-11-18-6-28 3-10 24-74 37-117-41 30-93 68-101 74-5 3-10 7-17 7-5 0-11-2-16-7-13-10-61-46-100-74 21 63 34 102 39 112 5 11 4 21-6 29l-2 2c-16 11-61 44-98 71l119 0c9 0 22 3 27 21l0 1c6 19 24 74 39 119m0 67c0-2-48-146-57-181-2-5-2-8-7-8-57 0-169 0-184 0 23-16 125-88 151-108 2-2 4-2 2-5-12-25-59-171-61-175 7 4 131 95 153 111 1 2 1 2 1 2 0 0 2 0 4-2 9-8 149-108 154-111 0 1 0 3-2 3-5 15-51 161-57 175-2 4 0 4 1 5 28 20 151 110 151 110-1 0-187 0-187 0-1 0-3 0-3 3-2 4-57 176-59 181z m-248-189c-1 0-1 0-1 0 0 0 0 0 1 0z"/>
<glyph glyph-name="star-full" unicode="&#74;" d="M353 195c-2 4 0 4 1 5 28 20 151 110 151 110-1 0-187 0-187 0-1 0-3 0-3 3-2 4-57 176-59 181 0-2-48-146-57-181-2-5-2-8-7-8-61 0-185 0-185 0 0 0 0 0 1 0 23-16 125-88 151-108 2-2 4-2 2-5-12-25-59-171-61-175 7 4 131 95 153 111 1 2 3 2 5 0 9-8 149-108 154-111 0 1 0 3-2 3-5 15-51 161-57 175z"/>
<glyph glyph-name="star-half-full" unicode="&#75;" d="M410 20c-5 15-51 161-57 175-2 4 0 4 1 5 28 20 151 110 151 110-1 0-187 0-187 0-1 0-3 0-3 3-2 4-56 171-59 181 0-2-48-146-57-181-2-5-2-8-7-8-57 0-169 0-184 0 23-16 125-88 151-108 2-2 4-2 2-5-12-25-59-171-61-175 7 4 131 95 153 111 1 0 1 2 3 2 0 0 0 0 2 0 0 0 1 0 1 0 10-9 150-109 154-112-1 0-1 2-3 2z m-139 123c-5 3-10 6-15 6l0 278c28-86 36-110 39-119 2-11 12-19 23-19l125 0c-38-28-84-61-100-72l-2 0c-8-7-11-18-6-28 3-10 24-74 37-117-41 28-93 66-101 71z"/>
<glyph glyph-name="bullet" unicode="&#76;" d="M217 62l-198 198c-26 25-26 67 0 93 26 26 68 26 93 0l105-105 183 182c25 26 67 26 93 0 26-25 26-67 0-93z"/>
<glyph glyph-name="location" unicode="&#77;" d="M446 338c-1 5-2 11-3 17-9 55-38 98-85 128-41 25-86 34-134 26-37-6-69-22-96-48-47-44-67-98-60-163 3-26 12-51 25-73 9-14 19-27 28-40 39-56 78-113 117-169 1-3 3-7 5-9 7-9 19-9 26 0 0 1 0 1 0 2 34 47 67 95 100 143 12 19 25 37 38 54 25 35 38 73 39 117-1 4-1 9 0 15z m-190-86c-44 0-81 36-81 81 0 44 36 80 81 80 45 0 81-36 81-80 0-45-36-81-81-81z"/>
<glyph glyph-name="arrow-left" unicode="&#78;" d="M95 258l239 239c19 19 49 19 68 0 19-19 19-49 0-68l-174-171 174-175c19-19 19-49 0-68-19-19-49-19-68 0z"/>
<glyph glyph-name="arrow-right" unicode="&#79;" d="M418 252l-240-241c-19-19-50-19-69 0-19 20-19 50 0 69l176 172-176 176c-19 19-19 50 0 69 19 19 50 19 69 0z"/>
<glyph glyph-name="call-and-bubble" unicode="&#80;" d="M492 424c-20 26-47 44-78 54-31 12-64 12-97 9-33-3-64-12-93-30-21-13-37-31-45-55-2-5-3-11-5-17 0-5 0-9 0-14 4-29 22-48 45-64 21-15 45-26 70-33 3-1 6-1 11-3-6-15-13-29-19-43 2 0 4 0 5 0 21 6 41 15 57 28 10 9 21 11 34 12 36 2 69 13 98 35 42 32 49 79 17 121z m-221-71c-14 0-26 11-26 26 0 13 12 26 26 26 14 0 26-12 26-26 0-15-11-26-26-26z m69 0c-14 0-25 11-25 26 0 14 13 26 26 26 14-1 26-13 26-27 0-14-12-26-27-25z m70 0c-14 0-25 11-25 26 0 14 11 26 25 26 14 0 27-13 27-26 0-15-12-26-27-26z m-113-226c-20 3-40 7-61 10-5 0-13-2-17-6-9-7-17-16-26-25-4-5-8-5-13-2-42 24-75 57-99 99-3 5-3 9 2 13 8 8 17 17 25 26 3 4 6 11 6 16-3 22-7 43-11 65-1 8-5 12-13 11-12 0-24 0-37 0-11 0-22 0-33 0-18 0-21-3-20-21 2-53 15-102 44-146 58-90 141-139 249-143 13-1 18 4 18 17 0 23 0 46 0 70 0 10-4 14-14 16z"/>
<glyph glyph-name="info" unicode="&#81;" d="M298 354c-18-3-37-6-55-9-19-3-37-6-55-9-6-1-6-1-8-6-1-3-2-6-3-9 1 0 2 0 2 0 4 0 8 0 13 0 4 0 9-1 13-3 8-5 12-12 12-21-1-8-2-16-4-23-6-20-11-39-17-58-13-46-26-91-39-137-3-10-5-21-5-31 0-20 11-36 29-43 8-3 16-4 25-4 12 0 24 3 35 9 16 7 29 18 40 30 16 18 29 37 41 57 0 0 1 1 1 2-4 2-8 4-12 7-1-2-2-3-3-4-6-8-12-17-18-25-6-8-12-15-20-21-3-2-6-4-10-5-3-1-5 0-8 2-4 4-5 8-4 13 0 5 1 9 2 14 6 20 12 40 18 61 20 70 41 140 61 211 0 1 1 2 1 3-1 0-1 0-1 0-11 0-20 1-31-1z m8 157c-31 0-55-27-54-55 0-28 24-54 54-54 30 0 54 24 54 55 0 30-24 54-54 54z"/>
<glyph glyph-name="page" unicode="&#82;" d="M455 337c0 4 0 8 0 13-6 0-10 0-14 0-41 0-83 0-125 0-17 0-23 6-23 23 0 46 0 93 0 139-73 0-146 0-219 0-14-7-18-18-18-33 0-149 0-298 0-447 0-15 5-26 18-32 121 0 242 0 362 0 14 6 19 17 19 32-1 102 0 203 0 305z m-318-51c44 0 179 0 223 0 14 0 21-7 21-18 0-10-7-17-21-17-22 0-90 0-112 0-22 0-89 0-111 0-14 0-22 6-22 17 0 11 8 18 22 18z m0-81c44 0 179 0 223 0 14 0 22-7 22-18 0-11-8-17-22-17-22 0-89 0-111 0-23 0-90 0-112 0-14 0-22 6-22 17 0 11 8 18 22 18z m225-116c-23 0-90 0-113 0-23 0-91 0-113 0-14 0-21 6-21 17 0 11 7 17 20 17 45 0 182 0 227 0 12 0 19-7 19-17 0-10-7-17-19-17z m-34 297c43 0 84 0 128 0-3 6-5 13-10 17-33 34-67 67-100 101-4 3-8 5-12 8-3 0-5 0-7 0 0-38 1-75 1-113 0-4 0-8 0-13z"/>
<glyph glyph-name="youtube-1" unicode="&#83;" d="M509 342c0 12-3 23-6 35-3 11-5 20-14 29-9 8-14 17-26 20-6 3-11 5-17 5-9 3-15 3-20 3-6 3-15 3-20 3-6 0-12 0-18 0-5 0-14 0-20 0-3 0-3 0-6 0-8 0-17 0-25 0-12 0-23 0-35 0-3 0-3 0-3 0-29 0-57 0-86 0-3 0-3 0-3 0-6 0-12 0-17 0-23-3-43-3-66-3-9 0-15 0-23 0-9-3-15-3-23-3-9 0-18-2-26-5-18-6-32-15-41-35-5-11-8-23-11-34 0-12-3-23-3-35 0-31 0-66 0-101 0-17 3-37 3-54 3-12 6-26 9-38 8-25 23-37 43-46 11-2 26-5 37-5 29 0 55-3 83-3 18 0 32 0 49 0 6 0 9 0 15 0 3 0 3 0 3 0 8 0 20 0 28 0l3 0c9 0 20 0 29 0 26 0 55 3 83 3 18 0 35 0 52 3 29 2 49 20 58 46 5 14 8 25 8 40 3 8 3 14 3 23 0 6 0 11 0 17 3 3 3 9 3 12 0 25 0 51 3 77 0 3 0 3 0 3 0 9 0 15 0 23-3 6-3 15-3 20z m-331-175c0 63 0 126 0 190 61-32 124-64 184-95-63-32-123-64-184-95z"/>
<glyph glyph-name="adc-logo" unicode="&#84;" d="M473 378c-4 6-7 12-10 17 0 0-1 0-1 0 1-3 3-6 4-9 0 0-1 0-1 0-3 2-4 6-7 8 0-1 1-1 1-2 8-12 15-24 19-38 1-3 1-6 2-9 0 0-1-1-1-2 0 1-1 1-2 1-1 1-1 3-2 5-6 13-13 26-21 38-10 15-22 30-35 42-5 5-10 9-15 14-1 0-1 0-2 1 0-1 0-1 0-2-37 28-79 44-124 46 0-1 0-1 0-1 3-1 6-1 10-1 2-1 5-1 7-1 1 0 3-1 2-2 0-1-1-3-2-3-1 0-3 0-4 0-11 1-22 2-33 1-6-1-12-1-18-1-8-1-16-3-23-4-13-3-25-8-37-13-5-3-10-6-15-9-2-1-3-2-4-3 0-1 1-1 1-1 1 0 2 0 3 1 4 2 9 5 13 7 1 0 2-1 3-1 1 0 1 0 2 0 8 3 16 6 24 8 7 2 15 3 23 4 13 3 27 3 40 3 9-1 18-3 26-3 2 0 4-1 5-1 3-1 3-2 2-4 15-6 29-12 43-19 18-8 35-19 49-31 15-13 28-28 38-45 2-3 4-6 3-9 0-1 0-2 1-3 7-12 12-24 15-37 2-9 4-18 5-27 1-5 1-12 1-18 0 0 0-1-1-2 0 4-1 8-1 11-1 8-2 16-4 23-2 8-5 17-7 25-4 12-10 24-18 35-8 13-18 26-29 37-21 20-44 34-72 43-10 3-21 6-32 8-13 2-26 3-39 1-8-1-17-1-25-3-20-4-39-11-56-21-9-6-18-12-26-20-9-9-17-19-26-29 0-1 0-2 0-3 0-1 0-3-1-4-3-5-6-10-9-15-7-13-13-26-17-40-2-8-4-16-6-25-2-12-2-24-1-37 0-11 2-23 5-35 3-13 7-26 13-38 8-16 16-30 28-44 7-8 15-16 24-22 7-5 14-10 22-15 2-1 3-2 6-1 0 0 0 0 1 0 6-3 12-6 19-8 1-1 3-1 3-3 0-1 1-2 2-2 3-1 7-2 11-4 1 0 1-1 2-1 1-1 2-1 3-1 14-2 28-5 42-5 3 0 5 1 8 0 2-1 4 0 6 0 8 1 15 2 22 3 12 3 24 6 35 11 7 4 15 8 22 12 11 6 21 14 31 22 10 9 19 19 27 29 5 8 10 15 15 22 0 0 0 1 0 1 2-1 2-2 2-4 0-1 0-3 0-4 0 0 0 0 0 0 1 1 2 1 3 3 6 10 12 19 17 30 9 18 15 38 20 57 0 2 1 5 2 7 0 1 1 1 2 2 1-1 1-1 2-2 1-5 1-10 2-15 1-12 0-24-1-36-2-15-5-30-9-45-3-8-5-18-7-27 0-1 0-1 0-1 1-5-1-8-3-11-2-4-5-7-7-10 0 0 0-1 0-1 1 1 2 2 4 3 7 9 14 19 20 30 4 10 9 20 14 31 0 1 1 2 2 4 0 0 1 1 2 1 0-1 1-1 1-2 0-3 1-5 0-8-1-9-2-18-4-27-3-9-7-19-11-28-4-10-11-20-18-30-9-10-18-20-28-29-12-11-24-20-37-28-17-10-34-18-52-25-10-3-21-6-32-9-8-1-17-2-25-3-13-1-27-1-41 0-7 0-15 1-22 2-8 1-15 3-22 4-15 4-30 9-43 16-14 8-27 16-40 25-16 10-30 23-42 37-10 10-19 21-27 33-14 17-24 37-32 59-3 11-6 22-9 33-4 21-5 41-4 62 0 8 1 15 2 23 1 7 2 14 4 20 1 7 4 15 6 22 4 13 10 26 16 38 9 17 19 32 31 47 16 19 34 34 54 47 18 12 38 22 60 29 9 3 19 6 28 8 7 1 15 2 22 3 7 0 15 0 23 1 7 1 15-2 23-3 5-1 11-2 17-3 7-1 13-3 20-5 13-3 25-7 37-13 12-5 24-11 36-18 3-1 4-3 6-5 7-6 14-12 21-18 8-8 17-16 25-24 10-11 19-23 26-35 1-3 3-6 5-9 0 0 0-1-1-1z m-57 65c0 0-1-1-1-1 8-7 14-14 22-20 0 0 0 0 0 0-7 7-14 14-21 21z"/>
<glyph glyph-name="downtime-1" unicode="&#85;" d="M162 386l71 0 0-260-71 0z m119 0l71 0 0-260-71 0z m112 122l-274 0c-62 0-111-49-111-111l0-282c0-62 49-111 111-111l274 0c62 0 111 49 111 111l0 282c0 62-49 111-111 111z m88-393c0-48-40-88-88-88l-274 0c-48 0-88 40-88 88l0 282c0 48 40 88 88 88l274 0c48 0 88-40 88-88z"/>
<glyph glyph-name="duration-1" unicode="&#86;" d="M501 431c-6 21-24 32-45 34-22 0-44 0-70 0 0 17 0 31 0 46-15 0-30 0-45 0 0-46 0-91 0-137 13 0 26 0 38 0 7 0 7 4 7 9 0 9 0 19 0 30 0 4 4 7 5 7 23 0 43 0 65 0 0-117 0-256 0-373-131 0-252 0-400 0 0 117 0 256 0 371 16 0 48 0 65 0 0-14 0-29 0-44 3 0 44 0 44 0l0 46c0 0 123 0 126 0 0 15 0 30 0 45-54 0-72 0-128 0 0 17 0 31 0 46-13 0-28 0-42 0 0-15 0-29 0-46-12 0-30 0-39 0-32 2-64-9-73-41 0-121 0-264 0-384 6-13 11-26 24-34 6-1 11-3 17-7 150 0 277 0 410 0 8 4 17 6 22 11 8 9 13 20 21 30 0 120 0 263 0 384 0 2-2 6-2 7z m-275-215c26 0 50 0 76 0 0 26 0 50 0 74-26 0-50 0-76 0 0-24 0-50 0-74z m0-113c26 0 50 0 76 0 0 26 0 50 0 74-26 0-50 0-76 0 0-26 0-50 0-74z m-41 187c-26 0-50 0-74 0 0-26 0-50 0-74 24 0 50 0 74 0 0 26 0 50 0 74z m231 0c-26 0-50 0-75 0 0-26 0-50 0-74 26 0 50 0 75 0 0 26 0 50 0 74z m-231-113c-26 0-50 0-74 0 0-26 0-50 0-74 26 0 50 0 74 0 0 24 0 48 0 74z"/>
<glyph glyph-name="procedure" unicode="&#87;" d="M263 256c-2 11-6 19-14 25-1 1-3 2-3 4 0 7-1 15-1 22-1 20-1 41-3 63 0 5-2 9-7 12-8 4-16-1-16-11-1-27-3-55-4-84 0-4-1-5-4-8-11-8-15-22-10-35 4-13 17-21 29-22 3 0 5-2 7-3 22-20 45-40 67-60 3-3 7-4 8-6 10 0 14 4 18 11 3 6 1 11-3 17-20 23-41 46-61 70-2 2-3 4-3 5z m170-60l79 79-52 0c-11 118-110 211-230 211-127 0-230-103-230-230 0-127 103-230 230-230 75 0 146 37 189 99l-34 23c-36-51-93-81-156-81-103 0-188 85-188 189 0 104 85 189 189 189 97 0 178-74 188-170l-65 0z"/>
<glyph glyph-name="bullet-point" unicode="&#88;" d="M388 211l0-134-344 0 0 343 261 0 42 42-345 0 0-428 428 0 0 217-35-35c-3-1-5-3-7-5z m110 255c-16 16-43 16-59 0l-208-208-66 67c-16 16-43 16-59 0-16-17-16-43 0-59l125-125 267 265c16 17 16 44 0 60z"/>
</font>
</defs>
</svg>
