<?xml version="1.0" encoding="utf-8"?>
<!-- Generator: Adobe Illustrator 21.1.0, SVG Export Plug-In . SVG Version: 6.00 Build 0)  -->
<svg version="1.1" id="Layer_1" xmlns="http://www.w3.org/2000/svg" xmlns:xlink="http://www.w3.org/1999/xlink" x="0px" y="0px"
	 viewBox="0 0 47.7 64.3" style="enable-background:new 0 0 47.7 64.3;" xml:space="preserve">
<style type="text/css">
	.st0{fill:#8E8E8E;}
</style>
<g>
	<g>
		<g>
			<path class="st0" d="M47.7,23.7C47.6,29.2,46,34,42.8,38.3c-1.6,2.2-3.2,4.5-4.7,6.8c-4.2,6-8.3,12-12.5,18
				c0,0.1-0.1,0.1-0.1,0.2c-0.9,1.2-2.3,1.2-3.2,0c-0.3-0.3-0.5-0.7-0.7-1.1c-4.9-7.1-9.8-14.2-14.7-21.2c-1.1-1.7-2.3-3.3-3.4-5
				c-1.7-2.8-2.8-5.9-3.2-9.2c-0.9-8.1,1.6-14.9,7.5-20.5c3.4-3.2,7.5-5.2,12.1-6c6-1,11.7,0.1,16.8,3.3c5.9,3.8,9.5,9.2,10.7,16.1
				c0.1,0.7,0.2,1.4,0.3,2.1C47.6,22.5,47.6,23.2,47.7,23.7z"/>
		</g>
	</g>
</g>
</svg>
